<?xml version="1.0" encoding="utf-8"?>
<!-- Generator: Adobe Illustrator 27.7.0, SVG Export Plug-In . SVG Version: 6.00 Build 0)  -->
<svg version="1.1" id="Layer_1" xmlns="http://www.w3.org/2000/svg" xmlns:xlink="http://www.w3.org/1999/xlink" x="0px" y="0px"
	 viewBox="0 0 1366 768" style="enable-background:new 0 0 1366 768;" xml:space="preserve">
<style type="text/css">
	.st0{fill:#FFFFFF;}
	.st1{fill:none;stroke:#E5E6E8;stroke-miterlimit:10;}
	.st2{fill:url(#SVGID_1_);}
	.st3{fill:#1B1B1B;}
	.st4{fill:url(#SVGID_00000054957892216892627700000005275525501479671453_);}
	.st5{fill:url(#SVGID_00000144312804362109846810000006425114106814203070_);}
	.st6{fill:url(#SVGID_00000118362940435459266410000005100979065903903405_);}
	.st7{fill:#FFFFFF;stroke:#000000;stroke-miterlimit:10;}
</style>
<path d="M782.88,489.5H502.12c-5.59,0-10.12-4.53-10.12-10.12V291.12c0-5.59,4.53-10.12,10.12-10.12h280.75
	c5.59,0,10.12,4.53,10.12,10.12v188.25C793,484.97,788.47,489.5,782.88,489.5z"/>
<rect x="500" y="296" class="st0" width="284" height="176"/>
<path class="st1" d="M564.5,495.5"/>
<linearGradient id="SVGID_1_" gradientUnits="userSpaceOnUse" x1="642.3241" y1="495.5" x2="642.3241" y2="489.55">
	<stop  offset="0" style="stop-color:#231F20"/>
	<stop  offset="1" style="stop-color:#ABACAE"/>
	<stop  offset="1" style="stop-color:#A6A7A9"/>
</linearGradient>
<path class="st2" d="M827.15,489.55c0,0-4.65,5.39-43.15,5.67c-38.5,0.28-38.5,0.28-38.5,0.28h-232c-51,0-56-5.95-56-5.95"/>
<rect x="492" y="476.5" class="st3" width="300" height="7"/>
<path class="st1" d="M782.4,489.06H501.65c-5.59,0-10.12-4.53-10.12-10.12V290.68c0-5.59,4.53-10.12,10.12-10.12H782.4
	c5.59,0,10.12,4.53,10.12,10.12v188.25C792.53,484.52,788,489.06,782.4,489.06z"/>
<linearGradient id="SVGID_00000083808519803222193360000017915419119159209374_" gradientUnits="userSpaceOnUse" x1="457.5" y1="486.5" x2="642.5" y2="486.5">
	<stop  offset="0" style="stop-color:#231F20"/>
	<stop  offset="0" style="stop-color:#2E2A2B"/>
	<stop  offset="0" style="stop-color:#F8F8F8"/>
	<stop  offset="0.1388" style="stop-color:#828080"/>
	<stop  offset="0.4076" style="stop-color:#989797"/>
	<stop  offset="0.6734" style="stop-color:#EAEAEA"/>
	<stop  offset="1" style="stop-color:#FFFFFF"/>
	<stop  offset="1" style="stop-color:#2A2627"/>
</linearGradient>
<rect x="457.5" y="483.45" style="fill:url(#SVGID_00000083808519803222193360000017915419119159209374_);" width="185" height="6.1"/>
<linearGradient id="SVGID_00000055669391245552375150000003884005420381288114_" gradientUnits="userSpaceOnUse" x1="526.1482" y1="603.1093" x2="711.1482" y2="603.1093" gradientTransform="matrix(-1 0 0 -1 1353.2964 1089.6093)">
	<stop  offset="0" style="stop-color:#231F20"/>
	<stop  offset="0" style="stop-color:#2E2A2B"/>
	<stop  offset="0" style="stop-color:#F8F8F8"/>
	<stop  offset="0.1388" style="stop-color:#828080"/>
	<stop  offset="0.4076" style="stop-color:#989797"/>
	<stop  offset="0.6734" style="stop-color:#EAEAEA"/>
	<stop  offset="1" style="stop-color:#FFFFFF"/>
	<stop  offset="1" style="stop-color:#2A2627"/>
</linearGradient>
<polygon style="fill:url(#SVGID_00000055669391245552375150000003884005420381288114_);" points="642.15,483.45 827.15,483.45 
	827.15,489.55 642.15,489.55 "/>
<linearGradient id="SVGID_00000063595986829798730930000002067932028996956576_" gradientUnits="userSpaceOnUse" x1="611" y1="485" x2="672" y2="485">
	<stop  offset="0" style="stop-color:#231F20"/>
	<stop  offset="0" style="stop-color:#8C8D8F"/>
	<stop  offset="0.0549" style="stop-color:#C3C4C6"/>
	<stop  offset="0.95" style="stop-color:#C6C7C9"/>
	<stop  offset="1" style="stop-color:#7D7E80"/>
</linearGradient>
<path style="fill:url(#SVGID_00000063595986829798730930000002067932028996956576_);" d="M669,488h-55c-1.66,0-3-1.34-3-3l0,0
	c0-1.66,1.34-3,3-3h55c1.66,0,3,1.34,3,3l0,0C672,486.66,670.66,488,669,488z"/>
<rect x="577" y="480.3" class="st3" width="130" height="3"/>
<path class="st7" d="M115,104"/>
</svg>
